<?xml version="1.0" encoding="utf-8"?>
<!-- Generator: Adobe Illustrator 16.0.0, SVG Export Plug-In . SVG Version: 6.00 Build 0)  -->
<!DOCTYPE svg PUBLIC "-//W3C//DTD SVG 1.1//EN" "http://www.w3.org/Graphics/SVG/1.1/DTD/svg11.dtd">
<svg version="1.1" xmlns="http://www.w3.org/2000/svg" xmlns:xlink="http://www.w3.org/1999/xlink" x="0px" y="0px" width="500px"
	 height="500px" viewBox="0 0 500 500" enable-background="new 0 0 500 500" xml:space="preserve">
<g id="Background">
	<rect fill="#F1F2F2" width="500" height="500"/>
</g>
<g id="Objects">
	<g>
		<circle fill="#56D9FB" cx="150.66" cy="207.506" r="28.503"/>
		<circle fill="#98FBFB" cx="162.591" cy="207.506" r="12.594"/>
		<g>
			<path fill="#456DAC" d="M243.344,116.213l-3.97,3.195c0,0,5.401,3.141,0.963,8.621c0,0-2.214,3.521-6.195,0.901
				c-4.625-1.147-3.613-5.143-3.613-5.143c1.017-6.979,6.988-5.141,6.988-5.141l-0.346-5.084c0,0-9.019-2.147-10.916,6.22
				c-1.896,8.367,3.469,11.93,3.469,11.93l3.094,0.361l2.241,1.923c0,0,6.257,1.526,11.118-5.543
				C251.04,121.384,243.344,116.213,243.344,116.213z"/>
			<polygon fill="#56A7E0" points="225.413,132.879 227.183,127.742 240.162,133.929 238.007,140.336 			"/>
			<path fill="#56D9FB" d="M198.236,158.234c0,0,21.984,0.379,26.845-21.464l11.489,4.915c0,0-8.815,42.166-43.295,38.195
				L198.236,158.234z"/>
			
				<rect x="191.191" y="152.36" transform="matrix(0.9919 0.1272 -0.1272 0.9919 22.9977 -23.5004)" fill="#456DAC" width="8.626" height="31.917"/>
			<polygon fill="#456DAC" points="220.773,136.77 239.001,145.808 241.321,138.837 223.756,129.397 			"/>
			<g>
				<path fill="#56A7E0" d="M203.362,179.67c0.583-0.096,1.173-0.184,1.738-0.308l2.136-22.692
					c-0.635,0.208-1.256,0.392-1.853,0.547L203.362,179.67z"/>
				<path fill="#56A7E0" d="M212.583,154.317c-0.571,0.325-1.144,0.629-1.713,0.902l1.905,21.36
					c0.553-0.285,1.098-0.579,1.627-0.891L212.583,154.317z"/>
				<path fill="#56A7E0" d="M223.081,142.801c-0.278,0.612-0.572,1.197-0.88,1.762l9.139,11.539
					c0.289-0.585,0.565-1.163,0.827-1.733L223.081,142.801z"/>
				<path fill="#56A7E0" d="M222.376,169.267c0.462-0.486,0.917-0.977,1.352-1.479l-5.163-18.168
					c-0.471,0.504-0.954,0.977-1.447,1.424L222.376,169.267z"/>
			</g>
		</g>
		<g>
			<path fill="#456DAC" d="M56.65,116.213l3.971,3.195c0,0-5.401,3.141-0.963,8.621c0,0,2.214,3.521,6.194,0.901
				c4.625-1.147,3.613-5.143,3.613-5.143c-1.016-6.979-6.988-5.141-6.988-5.141l0.346-5.084c0,0,9.019-2.147,10.915,6.22
				c1.896,8.367-3.469,11.93-3.469,11.93l-3.094,0.361l-2.241,1.923c0,0-6.257,1.526-11.118-5.543
				C48.955,121.384,56.65,116.213,56.65,116.213z"/>
			<polygon fill="#56A7E0" points="74.582,132.879 72.812,127.742 59.833,133.929 61.987,140.336 			"/>
			<path fill="#56D9FB" d="M101.758,158.234c0,0-21.984,0.379-26.845-21.464l-11.49,4.915c0,0,8.815,42.166,43.295,38.195
				L101.758,158.234z"/>
			
				<rect x="100.177" y="152.36" transform="matrix(-0.9919 0.1272 -0.1272 -0.9919 229.5408 321.9805)" fill="#456DAC" width="8.626" height="31.917"/>
			<polygon fill="#456DAC" points="79.222,136.77 60.993,145.808 58.673,138.837 76.239,129.397 			"/>
			<g>
				<path fill="#56A7E0" d="M96.632,179.67c-0.584-0.096-1.173-0.184-1.738-0.308l-2.136-22.692
					c0.635,0.208,1.256,0.392,1.853,0.547L96.632,179.67z"/>
				<path fill="#56A7E0" d="M87.411,154.317c0.572,0.325,1.144,0.629,1.713,0.902l-1.905,21.36
					c-0.552-0.285-1.098-0.579-1.627-0.891L87.411,154.317z"/>
				<path fill="#56A7E0" d="M76.914,142.801c0.278,0.612,0.573,1.197,0.881,1.762l-9.139,11.539
					c-0.289-0.585-0.565-1.163-0.827-1.733L76.914,142.801z"/>
				<path fill="#56A7E0" d="M77.618,169.267c-0.461-0.486-0.917-0.977-1.352-1.479l5.163-18.168
					c0.471,0.504,0.954,0.977,1.447,1.424L77.618,169.267z"/>
			</g>
		</g>
		<polygon fill="#56A7E0" points="109.882,205.739 115.71,213.03 184.221,213.03 190.049,205.739 		"/>
		<rect x="129.98" y="133.929" fill="#456DAC" width="39.956" height="9.817"/>
		<path fill="#56D9FB" d="M186.834,124.563c0,0,5.867-64.532-36.875-70.398h-0.003c-42.742,5.866-36.875,70.398-36.875,70.398
			H186.834z"/>
		<path fill="#56A7E0" d="M182.433,124.563c0,0,5.065-59.88-31.839-65.324h-0.002c-36.905,5.444-31.839,65.324-31.839,65.324
			H182.433z"/>
		<g>
			<g>
				<circle fill="#56D9FB" cx="120.468" cy="94.2" r="23.069"/>
				<circle fill="#47C5FB" cx="120.468" cy="94.2" r="19.264"/>
				<circle fill="#FCF4FB" cx="120.468" cy="94.2" r="15.934"/>
				<circle fill="#56A7E0" cx="120.468" cy="94.2" r="9.513"/>
			</g>
			<g>
				<circle fill="#56D9FB" cx="179.448" cy="94.2" r="23.069"/>
				<circle fill="#47C5FB" cx="179.448" cy="94.2" r="18.788"/>
				<circle fill="#FCF4FB" cx="179.448" cy="94.2" r="15.934"/>
				<circle fill="#56A7E0" cx="179.448" cy="94.2" r="9.512"/>
			</g>
		</g>
		<g>
			<rect x="106.198" y="122.025" fill="#98FBFB" width="87.519" height="14.745"/>
			<rect x="106.198" y="120.598" fill="#98FBFB" width="87.519" height="1.427"/>
			<rect x="114.442" y="122.025" fill="#56D9FB" width="72.616" height="14.745"/>
			<rect x="140.762" y="122.025" fill="#56B3FB" width="6.659" height="14.745"/>
			<rect x="151.067" y="122.025" fill="#56B3FB" width="20.612" height="14.745"/>
		</g>
		<path fill="#FCF4FB" d="M162.482,72.637c-0.562,0-1.126-0.198-1.58-0.601c-3.749-3.333-6.735-4.24-6.765-4.249
			c-1.253-0.37-1.982-1.684-1.621-2.939c0.36-1.257,1.656-1.99,2.916-1.638c0.161,0.045,3.992,1.147,8.63,5.27
			c0.981,0.873,1.07,2.376,0.197,3.358C163.791,72.367,163.138,72.637,162.482,72.637z"/>
		<path fill="#FCF4FB" d="M155.337,116.159h-9.932c-1.052,0-1.914-0.861-1.914-1.914v-1.247c0-1.052,0.861-1.914,1.914-1.914h9.932
			c1.053,0,1.914,0.861,1.914,1.914v1.247C157.251,115.297,156.39,116.159,155.337,116.159z"/>
		<rect x="104.412" y="141.685" fill="#98FBFB" width="91.092" height="4.123"/>
		<polygon fill="#56D9FB" points="190.034,205.739 109.882,205.739 102.271,148.662 104.412,145.808 195.504,145.808 
			197.645,148.662 		"/>
		<g>
			<g>
				<circle fill="#56A7E0" cx="112.877" cy="154.643" r="2.486"/>
				<circle fill="#56A7E0" cx="118.014" cy="197.895" r="2.486"/>
			</g>
			<g>
				<circle fill="#56A7E0" cx="187.117" cy="154.643" r="2.486"/>
				<circle fill="#56A7E0" cx="181.98" cy="197.895" r="2.486"/>
			</g>
		</g>
		<path fill="#FCF4FB" d="M174.345,184.306h-48.695c-1.196,0-2.167-0.97-2.167-2.167v-12.017c0-1.196,0.97-2.167,2.167-2.167h48.695
			c1.197,0,2.167,0.97,2.167,2.167v12.017C176.511,183.336,175.542,184.306,174.345,184.306z"/>
		<path fill="#56A7E0" d="M174.345,181.213h-48.695c-1.196,0-2.167-0.97-2.167-2.167v-12.017c0-1.196,0.97-2.167,2.167-2.167h48.695
			c1.197,0,2.167,0.97,2.167,2.167v12.017C176.511,180.243,175.542,181.213,174.345,181.213z"/>
	</g>
	<g>
		<g>
			<path fill="#EDC74D" d="M360.587,243.736h-10.56c-3.759,0-6.833-3.075-6.833-6.833v-25.286c0-3.758,3.074-6.833,6.833-6.833
				h10.56c3.759,0,6.833,3.075,6.833,6.833v25.286C367.42,240.662,364.346,243.736,360.587,243.736z"/>
			<path fill="#F9DB69" d="M356.312,239.112h-6.284c-3.759,0-6.833-3.075-6.833-6.833v-18.411c0-3.758,3.074-6.833,6.833-6.833
				h6.284c3.759,0,6.833,3.075,6.833,6.833v18.411C363.145,236.037,360.07,239.112,356.312,239.112z"/>
			<path fill="#FFFFFF" d="M348.825,230.554h-1.169c-0.756,0-1.375-0.619-1.375-1.375v-7.76c0-0.756,0.619-1.375,1.375-1.375h1.169
				c0.757,0,1.375,0.619,1.375,1.375v7.76C350.2,229.936,349.582,230.554,348.825,230.554z"/>
		</g>
		<g>
			<g>
				<path fill="#C1262E" d="M428.657,146.097l-2.626,2.114c0,0,3.572,2.078,0.637,5.703c0,0-1.465,2.33-4.098,0.596
					c-3.06-0.759-2.39-3.402-2.39-3.402c0.672-4.616,4.622-3.4,4.622-3.4l-0.229-3.364c0,0-5.966-1.42-7.221,4.115
					c-1.254,5.535,2.295,7.891,2.295,7.891l2.047,0.239l1.482,1.272c0,0,4.139,1.009,7.354-3.667S428.657,146.097,428.657,146.097z"
					/>
				<polygon fill="#FB6034" points="416.796,157.121 417.967,153.723 426.552,157.815 425.127,162.054 				"/>
				<path fill="#FB6034" d="M398.819,173.893c0,0,14.542,0.251,17.758-14.198l7.6,3.251c0,0-5.831,27.893-28.64,25.266
					L398.819,173.893z"/>
				
					<rect x="394.158" y="170.008" transform="matrix(0.9919 0.1273 -0.1273 0.9919 26.2059 -49.0545)" fill="#C1262E" width="5.706" height="21.112"/>
				<polygon fill="#C1262E" points="413.727,159.695 425.784,165.673 427.319,161.063 415.7,154.818 				"/>
				<g>
					<path fill="#E7341F" d="M402.21,188.073c0.386-0.063,0.775-0.122,1.149-0.204l1.413-15.011
						c-0.42,0.137-0.831,0.259-1.226,0.362L402.21,188.073z"/>
					<path fill="#E7341F" d="M408.31,171.302c-0.378,0.215-0.757,0.416-1.134,0.597l1.261,14.129
						c0.365-0.188,0.726-0.382,1.076-0.589L408.31,171.302z"/>
					<path fill="#E7341F" d="M415.253,163.684c-0.184,0.404-0.378,0.792-0.582,1.165l6.045,7.633
						c0.191-0.387,0.374-0.77,0.547-1.147L415.253,163.684z"/>
					<path fill="#E7341F" d="M414.787,181.191c0.306-0.322,0.606-0.646,0.895-0.979l-3.415-12.018
						c-0.312,0.333-0.631,0.646-0.957,0.941L414.787,181.191z"/>
				</g>
			</g>
			<g>
				<path fill="#C1262E" d="M290.73,154.788c0,0-3.207-11.52-5.106-11.282c-1.9,0.238,2.256,12.707,2.256,12.707L290.73,154.788z"/>
				<path fill="#C1262E" d="M285.096,157.425c0,0-3.206-11.52-5.106-11.282c-1.9,0.237,2.256,12.707,2.256,12.707L285.096,157.425z"
					/>
				<g>
					<polygon fill="#FB6034" points="291.615,157.121 290.444,153.723 281.859,157.815 283.284,162.054 					"/>
					<path fill="#FB6034" d="M309.592,173.893c0,0-14.542,0.251-17.757-14.198l-7.601,3.251c0,0,5.831,27.893,28.64,25.266
						L309.592,173.893z"/>
					
						<rect x="308.547" y="170.008" transform="matrix(-0.9919 0.1273 -0.1273 -0.9919 643.2461 320.032)" fill="#C1262E" width="5.706" height="21.112"/>
					<polygon fill="#C1262E" points="294.685,159.695 282.627,165.673 281.092,161.063 292.711,154.818 					"/>
					<g>
						<path fill="#E7341F" d="M306.201,188.073c-0.386-0.063-0.775-0.122-1.149-0.204l-1.413-15.011
							c0.42,0.137,0.831,0.259,1.226,0.362L306.201,188.073z"/>
						<path fill="#E7341F" d="M300.102,171.302c0.378,0.215,0.757,0.416,1.134,0.597l-1.261,14.129
							c-0.365-0.188-0.726-0.382-1.076-0.589L300.102,171.302z"/>
						<path fill="#E7341F" d="M293.158,163.684c0.184,0.404,0.378,0.792,0.582,1.165l-6.045,7.633
							c-0.191-0.387-0.374-0.77-0.547-1.147L293.158,163.684z"/>
						<path fill="#E7341F" d="M293.624,181.191c-0.306-0.322-0.606-0.646-0.895-0.979l3.415-12.018
							c0.312,0.333,0.631,0.646,0.957,0.941L293.624,181.191z"/>
					</g>
				</g>
			</g>
		</g>
		<rect x="339.631" y="154.194" fill="#C1262E" width="31.827" height="13.3"/>
		<g>
			<path fill="#E7341F" d="M323.468,168.597c0.174-3.733,3.246-6.709,7.022-6.709h51.033c3.776,0,6.849,2.976,7.022,6.709H323.468z"
				/>
			<path fill="#F14733" d="M398.132,166.522v6.498c0,23.423-19.164,42.587-42.587,42.587l0,0c-23.423,0-42.587-19.164-42.587-42.587
				v-6.498H398.132z"/>
			<path fill="#FB6034" d="M389.581,166.522h-68.073v2.995c0,18.72,15.316,34.037,34.037,34.037
				c18.72,0,34.036-15.316,34.036-34.037V166.522z"/>
		</g>
		<g>
			<path fill="#C1262E" d="M416.341,122.982h-6.266c-4.054,0-7.37-3.316-7.37-7.37v-10.59c0-4.054,3.316-7.37,7.37-7.37h6.266
				c4.054,0,7.37,3.316,7.37,7.37v10.59C423.711,119.666,420.395,122.982,416.341,122.982z"/>
			<path fill="#C1262E" d="M301.015,122.982h-6.267c-4.053,0-7.369-3.316-7.369-7.37v-10.59c0-4.054,3.316-7.37,7.369-7.37h6.267
				c4.053,0,7.37,3.316,7.37,7.37v10.59C308.385,119.666,305.067,122.982,301.015,122.982z"/>
			<path fill="#E7341F" d="M413.774,108.718c0,31.417-25.979,50.06-58.023,50.06c-32.046,0-58.023-18.642-58.023-50.06
				c0-31.417,25.978-56.885,58.023-56.885C387.796,51.833,413.774,77.301,413.774,108.718z"/>
			<path fill="#FB6034" d="M410.067,106.11c0,29.976-23.903,47.764-53.39,47.764s-53.391-17.788-53.391-47.764
				c0-29.977,23.904-54.277,53.391-54.277S410.067,76.133,410.067,106.11z"/>
			<path fill="#FEA77A" d="M398.354,102.902c0,20.357-19.074,32.437-42.604,32.437c-23.53,0-42.604-12.08-42.604-32.437
				s19.074-36.86,42.604-36.86C379.28,66.042,398.354,82.545,398.354,102.902z"/>
			<path fill="#E1EFF8" d="M398.354,101.369c0,19.51-19.074,31.087-42.604,31.087c-23.53,0-42.604-11.577-42.604-31.087
				c0-19.51,19.074-35.326,42.604-35.326C379.28,66.042,398.354,81.859,398.354,101.369z"/>
			<path fill="#F9FFFF" d="M386.901,94.666c-1.93,10.023-12.873,14.084-24.961,11.757s-20.742-10.16-18.813-20.183
				c1.93-10.023,13.293-16.262,25.381-13.936C380.596,74.632,388.83,84.643,386.901,94.666z"/>
			<circle fill="#414042" cx="330.729" cy="105.992" r="6.487"/>
			<circle fill="#414042" cx="380.772" cy="105.992" r="6.487"/>
			<path fill="#FEA77A" d="M394.161,80.97c-0.806-0.13-1.568-0.544-2.125-1.227c-4.604-5.644-8.675-7.635-8.716-7.654
				c-1.711-0.82-2.451-2.872-1.645-4.588c0.808-1.718,2.835-2.469,4.56-1.673c0.22,0.102,5.457,2.567,11.153,9.55
				c1.205,1.478,0.985,3.653-0.494,4.859C396.101,80.886,395.102,81.121,394.161,80.97z"/>
		</g>
		<path fill="#FEA77A" d="M386.223,189.245c-0.08-0.622,0.058-1.274,0.438-1.833c3.148-4.625,3.724-8.059,3.729-8.094
			c0.229-1.439,1.579-2.434,3.02-2.215c1.441,0.219,2.438,1.547,2.229,2.992c-0.026,0.184-0.696,4.581-4.593,10.304
			c-0.824,1.21-2.475,1.525-3.687,0.699C386.708,190.655,386.316,189.971,386.223,189.245z"/>
		<g>
			<g>
				<path fill="#FEA77A" d="M334.781,190.751l-1.297-1.406c-0.839-0.91-0.78-2.341,0.129-3.18l10.836-9.991
					c0.909-0.839,2.34-0.781,3.179,0.129l1.297,1.406c0.839,0.91,0.781,2.34-0.129,3.179l-10.835,9.991
					C337.051,191.719,335.62,191.661,334.781,190.751z"/>
				<path fill="#E7341F" d="M334.781,190.038l-1.297-1.406c-0.839-0.91-0.78-2.34,0.129-3.179l10.836-9.991
					c0.909-0.839,2.34-0.781,3.179,0.129l1.297,1.406c0.839,0.91,0.781,2.341-0.129,3.18l-10.835,9.991
					C337.051,191.006,335.62,190.948,334.781,190.038z"/>
			</g>
			<g>
				<path fill="#FEA77A" d="M349.121,190.751l-1.297-1.406c-0.839-0.91-0.78-2.341,0.129-3.18l10.836-9.991
					c0.909-0.839,2.34-0.781,3.179,0.129l1.297,1.406c0.839,0.91,0.781,2.34-0.129,3.179l-10.835,9.991
					C351.391,191.719,349.96,191.661,349.121,190.751z"/>
				<path fill="#E7341F" d="M349.121,190.038l-1.297-1.406c-0.839-0.91-0.78-2.34,0.129-3.179l10.836-9.991
					c0.909-0.839,2.34-0.781,3.179,0.129l1.297,1.406c0.839,0.91,0.781,2.341-0.129,3.18l-10.835,9.991
					C351.391,191.006,349.96,190.948,349.121,190.038z"/>
			</g>
			<g>
				<path fill="#FEA77A" d="M363.461,190.751l-1.297-1.406c-0.839-0.91-0.78-2.341,0.129-3.18l10.836-9.991
					c0.909-0.839,2.34-0.781,3.179,0.129l1.297,1.406c0.839,0.91,0.781,2.34-0.129,3.179l-10.835,9.991
					C365.73,191.719,364.3,191.661,363.461,190.751z"/>
				<path fill="#E7341F" d="M363.461,190.038l-1.297-1.406c-0.839-0.91-0.78-2.34,0.129-3.179l10.836-9.991
					c0.909-0.839,2.34-0.781,3.179,0.129l1.297,1.406c0.839,0.91,0.781,2.341-0.129,3.18l-10.835,9.991
					C365.73,191.006,364.3,190.948,363.461,190.038z"/>
			</g>
		</g>
		<rect x="339.631" y="212.147" fill="#C1262E" width="31.352" height="5.463"/>
		<path fill="#414042" d="M355.545,125.538c-5.327,0-9.5-2.965-9.5-6.75c0-0.829,0.672-1.5,1.5-1.5s1.5,0.671,1.5,1.5
			c0,1.998,3.037,3.75,6.5,3.75s6.5-1.752,6.5-3.75c0-0.829,0.672-1.5,1.5-1.5s1.5,0.671,1.5,1.5
			C365.045,122.573,360.872,125.538,355.545,125.538z"/>
	</g>
	<g>
		<g>
			<g>
				<g>
					<rect x="122.461" y="384.073" fill="#A77BBF" width="19.5" height="52"/>
					<rect x="122.461" y="393.323" fill="#9365AB" width="19.5" height="2.75"/>
					<rect x="122.461" y="404.323" fill="#9365AB" width="19.5" height="2.75"/>
					<rect x="122.461" y="415.323" fill="#9365AB" width="19.5" height="2.75"/>
					<rect x="122.461" y="426.323" fill="#9365AB" width="19.5" height="2.75"/>
				</g>
				<g>
					<path fill="#EDC74D" d="M147.623,442.164c-0.671-5.659-5.517-10.087-11.349-10.087h-8.124c-5.833,0-10.678,4.428-11.35,10.087
						H147.623z"/>
					<g>
						<rect x="115.83" y="440.011" fill="#B98DD6" width="32.762" height="7.437"/>
						<rect x="115.83" y="447.447" fill="#B98DD6" width="32.762" height="0.72"/>
						<rect x="119.649" y="440.011" fill="#A77BBF" width="24.215" height="7.437"/>
						<rect x="124.952" y="440.011" fill="#9365AB" width="3.819" height="7.437"/>
						<rect x="128.469" y="440.011" fill="#9365AB" width="11.821" height="7.437"/>
					</g>
				</g>
			</g>
			<g>
				<g>
					<rect x="159.128" y="384.073" fill="#A77BBF" width="19.5" height="52"/>
					<rect x="159.128" y="393.323" fill="#9365AB" width="19.5" height="2.75"/>
					<rect x="159.128" y="404.323" fill="#9365AB" width="19.5" height="2.75"/>
					<rect x="159.128" y="415.323" fill="#9365AB" width="19.5" height="2.75"/>
					<rect x="159.128" y="426.323" fill="#9365AB" width="19.5" height="2.75"/>
				</g>
				<g>
					<path fill="#EDC74D" d="M184.289,442.164c-0.671-5.659-5.517-10.087-11.349-10.087h-8.124c-5.833,0-10.678,4.428-11.349,10.087
						H184.289z"/>
					<g>
						<rect x="152.497" y="440.011" fill="#B98DD6" width="32.763" height="7.437"/>
						<rect x="152.497" y="447.447" fill="#B98DD6" width="32.763" height="0.72"/>
						<rect x="156.315" y="440.011" fill="#A77BBF" width="24.216" height="7.437"/>
						<rect x="161.618" y="440.011" fill="#9365AB" width="3.819" height="7.437"/>
						<rect x="165.136" y="440.011" fill="#9365AB" width="11.82" height="7.437"/>
					</g>
				</g>
			</g>
		</g>
		<path fill="#A77BBF" d="M191.811,359.24v-57.833c0-21.084-17.25-38.334-38.333-38.334h-5.866
			c-21.083,0-38.333,17.25-38.333,38.334v57.833H191.811z"/>
		<rect x="150.044" y="263.073" fill="#9365AB" width="1" height="96.167"/>
		<path fill="#9365AB" d="M102.708,367.073c1.331,11.222,10.939,20,22.503,20h50.667c11.564,0,21.172-8.778,22.503-20H102.708z"/>
		<rect x="109.279" y="310.24" fill="#F9DB69" width="82.532" height="16.5"/>
		<rect x="116.279" y="310.24" fill="#EDC74D" width="68.532" height="16.5"/>
		<g>
			<circle fill="#9365AB" cx="150.545" cy="319.272" r="24.096"/>
			<circle fill="#A77BBF" cx="150.545" cy="319.272" r="19.625"/>
			<circle fill="#FCF4FB" cx="150.544" cy="319.272" r="16.644"/>
			<circle fill="#9365AB" cx="150.545" cy="319.272" r="9.936"/>
		</g>
		<g>
			<rect x="100.785" y="356.598" fill="#B98DD6" width="99.52" height="14.745"/>
			<rect x="100.785" y="355.171" fill="#B98DD6" width="99.52" height="1.427"/>
			<rect x="110.16" y="356.598" fill="#A77BBF" width="82.573" height="14.745"/>
			<rect x="140.088" y="356.598" fill="#9365AB" width="7.572" height="14.745"/>
			<rect x="151.807" y="356.598" fill="#9365AB" width="23.438" height="14.745"/>
		</g>
		<g>
			<circle fill="#9365AB" cx="172.726" cy="298.989" r="2.486"/>
			<circle fill="#9365AB" cx="177.863" cy="342.24" r="2.486"/>
		</g>
		<g>
			<circle fill="#9365AB" cx="127.182" cy="298.989" r="2.486"/>
			<circle fill="#9365AB" cx="122.045" cy="342.24" r="2.486"/>
		</g>
		<g>
			
				<rect x="215.045" y="360.574" transform="matrix(0.9784 0.2066 -0.2066 0.9784 80.4484 -36.9819)" fill="#9365AB" width="4.5" height="12.25"/>
			
				<rect x="220.669" y="365.324" transform="matrix(0.8074 0.59 -0.59 0.8074 262.1103 -59.9807)" fill="#9365AB" width="4.5" height="12.249"/>
			
				<rect x="207.545" y="364.573" transform="matrix(0.9525 -0.3047 0.3047 0.9525 -102.97 81.5456)" fill="#9365AB" width="4.5" height="12.25"/>
			
				<rect x="189.545" y="388.323" transform="matrix(0.7533 0.6576 -0.6576 0.7533 306.8243 -35.6378)" fill="#9365AB" width="22.75" height="5.75"/>
			
				<rect x="202.045" y="384.574" transform="matrix(0.2143 -0.9768 0.9768 0.2143 -210.7616 512.8867)" fill="#9365AB" width="22.75" height="5.75"/>
			<g>
				<circle fill="#A77BBF" cx="193.044" cy="384.323" r="8.25"/>
				<circle fill="#9365AB" cx="193.044" cy="384.323" r="4"/>
			</g>
			<g>
				<circle fill="#A77BBF" cx="210.183" cy="399.285" r="8.25"/>
				<circle fill="#9365AB" cx="210.183" cy="399.285" r="4"/>
			</g>
			<g>
				<circle fill="#A77BBF" cx="215.35" cy="376.451" r="8.25"/>
				<circle fill="#9365AB" cx="215.35" cy="376.451" r="4"/>
			</g>
		</g>
		<g>
			
				<rect x="81.266" y="360.574" transform="matrix(-0.9784 0.2066 -0.2066 -0.9784 240.9912 708.2314)" fill="#9365AB" width="4.5" height="12.25"/>
			
				<rect x="75.641" y="365.324" transform="matrix(-0.8074 0.59 -0.59 -0.8074 359.9321 625.4056)" fill="#9365AB" width="4.501" height="12.249"/>
			
				<rect x="88.766" y="364.573" transform="matrix(-0.9525 -0.3047 0.3047 -0.9525 64.7605 751.5024)" fill="#9365AB" width="4.5" height="12.25"/>
			
				<rect x="88.517" y="388.323" transform="matrix(-0.7533 0.6576 -0.6576 -0.7533 432.4084 620.2109)" fill="#9365AB" width="22.75" height="5.75"/>
			
				<rect x="76.016" y="384.574" transform="matrix(-0.2143 -0.9768 0.9768 -0.2143 -272.3308 555.8344)" fill="#9365AB" width="22.75" height="5.75"/>
			<g>
				<circle fill="#A77BBF" cx="107.766" cy="384.323" r="8.25"/>
				<circle fill="#9365AB" cx="107.766" cy="384.323" r="4"/>
			</g>
			<g>
				<circle fill="#A77BBF" cx="90.628" cy="399.285" r="8.25"/>
				<circle fill="#9365AB" cx="90.628" cy="399.285" r="4"/>
			</g>
			<g>
				<circle fill="#A77BBF" cx="85.461" cy="376.451" r="8.25"/>
				<circle fill="#9365AB" cx="85.461" cy="376.451" r="4"/>
			</g>
		</g>
	</g>
	<g>
		<g>
			<path fill="#64D28B" d="M436.42,322.385L436.42,322.385c-4.606,0-8.375-3.769-8.375-8.375v-7.5c0-4.606,3.769-8.375,8.375-8.375
				l0,0c4.605,0,8.375,3.769,8.375,8.375v7.5C444.795,318.616,441.025,322.385,436.42,322.385z"/>
			<path fill="#4BB772" d="M428.861,316.385c-0.756,8.932-3.697,15.921-8.785,20.822c-9.981,9.616-25.528,8.874-25.855,8.86
				c-4.37-0.29-8.193,3.045-8.49,7.443c-0.299,4.408,3.033,8.224,7.441,8.521c0.152,0.011,0.88,0.056,2.058,0.056
				c5.905,0,23.125-1.115,35.813-13.229c8.351-7.973,12.996-18.881,13.863-32.475H428.861z"/>
			<g>
				<path fill="#3C815E" d="M431.861,348.036c0.707-0.712,1.393-1.44,2.043-2.197l-11.863-10.776
					c-0.617,0.751-1.267,1.472-1.965,2.145c-0.022,0.021-0.045,0.041-0.067,0.062L431.861,348.036z"/>
				<path fill="#3C815E" d="M427.02,325.8c-0.342,1.044-0.735,2.039-1.163,3.003l17.004-0.039c0.275-0.982,0.526-1.981,0.75-3.002
					L427.02,325.8z"/>
				<path fill="#3C815E" d="M416.225,358.158c0.917-0.359,1.838-0.751,2.76-1.178l-6.413-14.658
					c-0.92,0.438-1.844,0.828-2.763,1.171L416.225,358.158z"/>
			</g>
			<rect x="425.795" y="311.135" fill="#3C815E" width="22" height="8.25"/>
			<path fill="#ACE4B1" d="M439.242,309.684c-0.213-0.288-0.325-0.652-0.291-1.038c0.287-3.188-0.381-5.065-0.388-5.085
				c-0.286-0.783,0.112-1.655,0.894-1.947s1.649,0.095,1.947,0.875c0.038,0.1,0.927,2.484,0.571,6.43
				c-0.075,0.835-0.813,1.451-1.648,1.376C439.878,310.253,439.492,310.021,439.242,309.684z"/>
		</g>
		<g>
			<path fill="#64D28B" d="M265.587,322.385L265.587,322.385c4.605,0,8.375-3.769,8.375-8.375v-7.5c0-4.606-3.77-8.375-8.375-8.375
				l0,0c-4.606,0-8.375,3.769-8.375,8.375v7.5C257.212,318.616,260.98,322.385,265.587,322.385z"/>
			<path fill="#4BB772" d="M273.145,316.385c0.756,8.932,3.697,15.921,8.786,20.822c9.981,9.616,25.528,8.874,25.855,8.86
				c4.37-0.29,8.193,3.045,8.49,7.443c0.299,4.408-3.033,8.224-7.441,8.521c-0.152,0.011-0.88,0.056-2.058,0.056
				c-5.905,0-23.125-1.115-35.813-13.229c-8.352-7.973-12.996-18.881-13.863-32.475H273.145z"/>
			<g>
				<path fill="#3C815E" d="M270.145,348.036c-0.706-0.712-1.393-1.44-2.043-2.197l11.863-10.776
					c0.618,0.751,1.267,1.472,1.966,2.145c0.021,0.021,0.045,0.041,0.066,0.062L270.145,348.036z"/>
				<path fill="#3C815E" d="M274.986,325.8c0.342,1.044,0.736,2.039,1.163,3.003l-17.004-0.039c-0.275-0.982-0.526-1.981-0.75-3.002
					L274.986,325.8z"/>
				<path fill="#3C815E" d="M285.781,358.158c-0.916-0.359-1.837-0.751-2.76-1.178l6.413-14.658c0.92,0.438,1.844,0.828,2.763,1.171
					L285.781,358.158z"/>
			</g>
			<rect x="254.212" y="311.135" fill="#3C815E" width="22" height="8.25"/>
			<path fill="#ACE4B1" d="M262.764,309.684c0.213-0.288,0.325-0.652,0.291-1.038c-0.287-3.188,0.381-5.065,0.388-5.085
				c0.286-0.783-0.112-1.655-0.894-1.947s-1.649,0.095-1.946,0.875c-0.038,0.1-0.927,2.484-0.572,6.43
				c0.076,0.835,0.813,1.451,1.648,1.376C262.128,310.253,262.515,310.021,262.764,309.684z"/>
		</g>
		<rect x="336.545" y="326.385" fill="#3C815E" width="30.5" height="12"/>
		<g>
			<g>
				<rect x="331.128" y="406.331" fill="#64D28B" width="11.333" height="39.471"/>
				<rect x="331.128" y="415.581" fill="#4BB772" width="11.333" height="2.75"/>
				<rect x="331.128" y="426.581" fill="#4BB772" width="11.333" height="2.75"/>
				<rect x="331.128" y="436.052" fill="#4BB772" width="11.333" height="2.75"/>
			</g>
			<g>
				<path fill="#3C815E" d="M324.635,399.797c0.558,4.696,4.578,8.37,9.418,8.37h6.741c4.84,0,8.861-3.674,9.418-8.37H324.635z"/>
				<g>
					<rect x="323.83" y="395.413" fill="#64D28B" width="27.187" height="6.171"/>
					<rect x="323.83" y="394.815" fill="#64D28B" width="27.187" height="0.598"/>
					<rect x="327.754" y="395.413" fill="#4BB772" width="20.094" height="6.171"/>
					<rect x="340.278" y="395.413" fill="#3C815E" width="3.169" height="6.171"/>
					<rect x="330.721" y="395.413" fill="#3C815E" width="9.809" height="6.171"/>
				</g>
			</g>
			<g>
				<path fill="#3C815E" d="M349.212,443.186c-0.557-4.696-4.578-8.37-9.418-8.37h-6.741c-4.84,0-8.86,3.674-9.418,8.37H349.212z"/>
				<g>
					<rect x="322.83" y="441.399" fill="#64D28B" width="27.187" height="6.171"/>
					<rect x="322.83" y="447.57" fill="#64D28B" width="27.187" height="0.597"/>
					<rect x="325.999" y="441.399" fill="#4BB772" width="20.095" height="6.171"/>
					<rect x="330.399" y="441.399" fill="#3C815E" width="3.169" height="6.171"/>
				</g>
			</g>
		</g>
		<g>
			<g>
				<rect x="362.795" y="406.331" fill="#64D28B" width="11.333" height="39.471"/>
				<rect x="362.795" y="415.581" fill="#4BB772" width="11.333" height="2.75"/>
				<rect x="362.795" y="426.581" fill="#4BB772" width="11.333" height="2.75"/>
				<rect x="362.795" y="436.052" fill="#4BB772" width="11.333" height="2.75"/>
			</g>
			<g>
				<path fill="#3C815E" d="M356.302,399.797c0.557,4.696,4.578,8.37,9.418,8.37h6.741c4.84,0,8.86-3.674,9.418-8.37H356.302z"/>
				<g>
					<rect x="355.497" y="395.413" fill="#64D28B" width="27.187" height="6.171"/>
					<rect x="355.497" y="394.815" fill="#64D28B" width="27.187" height="0.598"/>
					<rect x="359.42" y="395.413" fill="#4BB772" width="20.095" height="6.171"/>
					<rect x="371.945" y="395.413" fill="#3C815E" width="3.169" height="6.171"/>
					<rect x="362.387" y="395.413" fill="#3C815E" width="9.809" height="6.171"/>
				</g>
			</g>
			<g>
				<path fill="#3C815E" d="M380.879,443.186c-0.558-4.696-4.578-8.37-9.418-8.37h-6.741c-4.84,0-8.861,3.674-9.418,8.37H380.879z"
					/>
				<g>
					<rect x="354.497" y="441.399" fill="#64D28B" width="27.187" height="6.171"/>
					<rect x="354.497" y="447.57" fill="#64D28B" width="27.187" height="0.597"/>
					<rect x="357.666" y="441.399" fill="#4BB772" width="20.094" height="6.171"/>
					<rect x="362.066" y="441.399" fill="#3C815E" width="3.169" height="6.171"/>
				</g>
			</g>
		</g>
		<g>
			<path fill="#64D28B" d="M393.711,328.448h-81.333c-3.498,0-6.333-2.836-6.333-6.333v-36.128c0-3.497,2.835-6.333,6.333-6.333
				h81.333c3.498,0,6.334,2.836,6.334,6.333v36.128C400.045,325.612,397.209,328.448,393.711,328.448z"/>
			<path fill="#4BB772" d="M387.119,322.861h-68.148c-3.498,0-6.334-2.836-6.334-6.334v-24.953c0-3.497,2.836-6.333,6.334-6.333
				h68.148c3.497,0,6.333,2.836,6.333,6.333v24.953C393.452,320.025,390.616,322.861,387.119,322.861z"/>
			<g>
				<g>
					<circle fill="#64D28B" cx="318.456" cy="290.889" r="1.547"/>
					<circle fill="#64D28B" cx="318.456" cy="318.066" r="1.547"/>
				</g>
				<g>
					<circle fill="#64D28B" cx="387.633" cy="290.889" r="1.547"/>
					<circle fill="#64D28B" cx="387.633" cy="318.066" r="1.547"/>
				</g>
			</g>
			<g>
				<g>
					<circle fill="#4B935C" cx="337.778" cy="305.932" r="14.37"/>
					<circle fill="#64D28B" cx="335.663" cy="303.382" r="14.37"/>
					<circle fill="#64BE83" cx="335.663" cy="303.382" r="10.264"/>
					<circle fill="#4B935C" cx="335.663" cy="303.382" r="9.332"/>
					<circle fill="#FCF4FB" cx="335.663" cy="303.382" r="7.589"/>
					<circle fill="#4BB772" cx="335.663" cy="303.382" r="4.728"/>
				</g>
				<g>
					<circle fill="#4B935C" cx="370.427" cy="305.932" r="14.37"/>
					<circle fill="#64D28B" cx="368.312" cy="303.382" r="14.37"/>
					<circle fill="#64BE83" cx="368.312" cy="303.382" r="10.265"/>
					<circle fill="#4B935C" cx="368.312" cy="303.382" r="9.331"/>
					<circle fill="#FCF4FB" cx="368.312" cy="303.382" r="7.589"/>
					<circle fill="#4BB772" cx="368.312" cy="303.382" r="4.728"/>
				</g>
			</g>
		</g>
		<path fill="#4BB772" d="M382.045,396.874h-58c-3.498,0-6.334-2.836-6.334-6.334v-30.312c0-3.497,2.836-6.333,6.334-6.333h58
			c3.497,0,6.333,2.836,6.333,6.333v30.312C388.378,394.038,385.542,396.874,382.045,396.874z"/>
		<path fill="#64D28B" d="M399.045,388.217h-92c-3.498,0-6.334-2.836-6.334-6.334v-41.664c0-3.497,2.836-6.333,6.334-6.333h92
			c3.497,0,6.333,2.836,6.333,6.333v41.664C405.378,385.381,402.542,388.217,399.045,388.217z"/>
		<g>
			<g>
				<circle fill="#4BB772" cx="314.531" cy="346.395" r="1.723"/>
				<circle fill="#4BB772" cx="314.531" cy="376.656" r="1.723"/>
			</g>
			<g>
				<circle fill="#4BB772" cx="391.558" cy="346.395" r="1.723"/>
				<circle fill="#4BB772" cx="391.558" cy="376.656" r="1.723"/>
			</g>
		</g>
		<path fill="#4BB772" d="M324.045,343.385v8h-2.5v2.25h2.5v15.75h-2.5v2.25h2.5v8.25h39.5v-36.5H324.045z M362.545,378.885h-37.5
			v-7.25h2.25v-2.25h-2.25v-15.75h2.25v-2.25h-2.25v-7h37.5V378.885z"/>
		<g>
			<circle fill="#4BB772" cx="377.016" cy="351.543" r="8.25"/>
			<circle fill="#3C815E" cx="377.016" cy="351.543" r="4"/>
		</g>
		<g>
			<circle fill="#4BB772" cx="377.016" cy="373.052" r="8.25"/>
			<circle fill="#3C815E" cx="377.016" cy="373.052" r="4"/>
		</g>
	</g>
</g>
<g id="Designed_By_Freepik">
</g>
</svg>
